<svg width="52" height="52" viewBox="0 0 52 52" fill="none" xmlns="http://www.w3.org/2000/svg">
<mask id="path-1-inside-1_1401_32247" fill="white">
<path d="M32.9337 47.6665C32.9337 47.1882 32.5464 46.7999 32.0671 46.7999H29.4671V35.5333C29.4671 35.0549 29.0797 34.6666 28.6005 34.6666H23.4005C22.9212 34.6666 22.5338 35.0549 22.5338 35.5333V46.7999H19.9338C19.4545 46.7999 19.0672 47.1882 19.0672 47.6665V50.2665H14.7338C14.2545 50.2665 13.8672 50.6548 13.8672 51.1332C13.8672 51.6115 14.2545 51.9998 14.7338 51.9998H19.9338C20.4131 51.9998 20.8005 51.6115 20.8005 51.1332V48.5332H32.0671C32.5463 48.5333 32.9337 48.145 32.9337 47.6665ZM27.7337 40.7333H26.8671C26.3878 40.7333 26.0005 41.1215 26.0005 41.5999C26.0005 42.0782 26.3878 42.4665 26.8671 42.4665H27.7337V46.7999H24.2671V36.3999H27.7337V40.7333Z"/>
</mask>
<path d="M29.4671 46.7999H26.4671V49.7999H29.4671V46.7999ZM22.5338 46.7999V49.7999H25.5338V46.7999H22.5338ZM19.0672 50.2665V53.2665H22.0672V50.2665H19.0672ZM20.8005 48.5332V45.5332H17.8005V48.5332H20.8005ZM32.0671 48.5332L32.0677 45.5332H32.0671V48.5332ZM27.7337 40.7333V43.7333H30.7337V40.7333H27.7337ZM27.7337 42.4665H30.7337V39.4665H27.7337V42.4665ZM27.7337 46.7999V49.7999H30.7337V46.7999H27.7337ZM24.2671 46.7999H21.2671V49.7999H24.2671V46.7999ZM24.2671 36.3999V33.3999H21.2671V36.3999H24.2671ZM27.7337 36.3999H30.7337V33.3999H27.7337V36.3999ZM35.9337 47.6665C35.9337 45.5334 34.2053 43.7999 32.0671 43.7999V49.7999C30.8874 49.7999 29.9337 48.8429 29.9337 47.6665H35.9337ZM32.0671 43.7999H29.4671V49.7999H32.0671V43.7999ZM32.4671 46.7999V35.5333H26.4671V46.7999H32.4671ZM32.4671 35.5333C32.4671 33.4001 30.7386 31.6666 28.6005 31.6666V37.6666C27.4208 37.6666 26.4671 36.7097 26.4671 35.5333H32.4671ZM28.6005 31.6666H23.4005V37.6666H28.6005V31.6666ZM23.4005 31.6666C21.2623 31.6666 19.5338 33.4001 19.5338 35.5333H25.5338C25.5338 36.7097 24.5801 37.6666 23.4005 37.6666V31.6666ZM19.5338 35.5333V46.7999H25.5338V35.5333H19.5338ZM22.5338 43.7999H19.9338V49.7999H22.5338V43.7999ZM19.9338 43.7999C17.7956 43.7999 16.0672 45.5334 16.0672 47.6665H22.0672C22.0672 48.8429 21.1135 49.7999 19.9338 49.7999V43.7999ZM16.0672 47.6665V50.2665H22.0672V47.6665H16.0672ZM19.0672 47.2665H14.7338V53.2665H19.0672V47.2665ZM14.7338 47.2665C12.5956 47.2665 10.8672 49 10.8672 51.1332H16.8672C16.8672 52.3096 15.9135 53.2665 14.7338 53.2665V47.2665ZM10.8672 51.1332C10.8672 53.2663 12.5956 54.9998 14.7338 54.9998V48.9998C15.9135 48.9998 16.8672 49.9567 16.8672 51.1332H10.8672ZM14.7338 54.9998H19.9338V48.9998H14.7338V54.9998ZM19.9338 54.9998C22.072 54.9998 23.8005 53.2663 23.8005 51.1332H17.8005C17.8005 49.9567 18.7542 48.9998 19.9338 48.9998V54.9998ZM23.8005 51.1332V48.5332H17.8005V51.1332H23.8005ZM20.8005 51.5332H32.0671V45.5332H20.8005V51.5332ZM32.0664 51.5332C34.2052 51.5336 35.9337 49.7997 35.9337 47.6665H29.9337C29.9337 46.4903 30.8874 45.5329 32.0677 45.5332L32.0664 51.5332ZM27.7337 37.7333H26.8671V43.7333H27.7337V37.7333ZM26.8671 37.7333C24.7289 37.7333 23.0005 39.4668 23.0005 41.5999H29.0005C29.0005 42.7763 28.0467 43.7333 26.8671 43.7333V37.7333ZM23.0005 41.5999C23.0005 43.733 24.7289 45.4665 26.8671 45.4665V39.4665C28.0467 39.4665 29.0005 40.4235 29.0005 41.5999H23.0005ZM26.8671 45.4665H27.7337V39.4665H26.8671V45.4665ZM24.7337 42.4665V46.7999H30.7337V42.4665H24.7337ZM27.7337 43.7999H24.2671V49.7999H27.7337V43.7999ZM27.2671 46.7999V36.3999H21.2671V46.7999H27.2671ZM24.2671 39.3999H27.7337V33.3999H24.2671V39.3999ZM24.7337 36.3999V40.7333H30.7337V36.3999H24.7337Z" fill="#FAFAFA" mask="url(#path-1-inside-1_1401_32247)"/>
<mask id="path-3-inside-2_1401_32247" fill="white">
<path d="M36.4004 42.4666C36.4004 42.945 36.7878 43.3333 37.267 43.3333H42.467C42.9463 43.3333 43.3337 42.945 43.3337 42.4666V35.5333C43.3337 35.0549 42.9463 34.6666 42.467 34.6666H37.267C36.7878 34.6666 36.4004 35.0549 36.4004 35.5333V42.4666ZM38.1338 36.4H41.6004V38.1334H38.1338V36.4ZM38.1338 39.8666H41.6004V41.6H38.1338V39.8666Z"/>
</mask>
<path d="M41.6004 36.4H44.6004V33.4H41.6004V36.4ZM41.6004 38.1334V41.1334H44.6004V38.1334H41.6004ZM38.1338 38.1334H35.1338V41.1334H38.1338V38.1334ZM38.1338 36.4V33.4H35.1338V36.4H38.1338ZM41.6004 39.8666H44.6004V36.8666H41.6004V39.8666ZM41.6004 41.6V44.6H44.6004V41.6H41.6004ZM38.1338 41.6H35.1338V44.6H38.1338V41.6ZM38.1338 39.8666V36.8666H35.1338V39.8666H38.1338ZM33.4004 42.4666C33.4004 44.5998 35.1289 46.3333 37.267 46.3333V40.3333C38.4467 40.3333 39.4004 41.2902 39.4004 42.4666H33.4004ZM37.267 46.3333H42.467V40.3333H37.267V46.3333ZM42.467 46.3333C44.6052 46.3333 46.3337 44.5998 46.3337 42.4666H40.3337C40.3337 41.2902 41.2874 40.3333 42.467 40.3333V46.3333ZM46.3337 42.4666V35.5333H40.3337V42.4666H46.3337ZM46.3337 35.5333C46.3337 33.4001 44.6052 31.6666 42.467 31.6666V37.6666C41.2874 37.6666 40.3337 36.7097 40.3337 35.5333H46.3337ZM42.467 31.6666H37.267V37.6666H42.467V31.6666ZM37.267 31.6666C35.1289 31.6666 33.4004 33.4001 33.4004 35.5333H39.4004C39.4004 36.7097 38.4467 37.6666 37.267 37.6666V31.6666ZM33.4004 35.5333V42.4666H39.4004V35.5333H33.4004ZM38.1338 39.4H41.6004V33.4H38.1338V39.4ZM38.6004 36.4V38.1334H44.6004V36.4H38.6004ZM41.6004 35.1334H38.1338V41.1334H41.6004V35.1334ZM41.1338 38.1334V36.4H35.1338V38.1334H41.1338ZM38.1338 42.8666H41.6004V36.8666H38.1338V42.8666ZM38.6004 39.8666V41.6H44.6004V39.8666H38.6004ZM41.6004 38.6H38.1338V44.6H41.6004V38.6ZM41.1338 41.6V39.8666H35.1338V41.6H41.1338Z" fill="#FAFAFA" mask="url(#path-3-inside-2_1401_32247)"/>
<mask id="path-5-inside-3_1401_32247" fill="white">
<path d="M50.2671 46.9593V9.53326C50.2671 9.0549 49.8797 8.66663 49.4005 8.66663C48.9212 8.66663 48.5338 9.0549 48.5338 9.53326V46.2504C47.8951 45.5181 46.9635 45.0665 45.9338 45.0665C44.6495 45.0665 43.5097 45.7616 42.9126 46.8389C42.7662 46.8129 42.6171 46.7999 42.4672 46.7999C41.0337 46.7999 39.8672 47.9664 39.8672 49.3999C39.8672 50.8333 41.0337 51.9999 42.4672 51.9999H49.4005C50.8339 51.9999 52.0005 50.8333 52.0005 49.3999C52.0005 48.2715 51.2734 47.319 50.2671 46.9593ZM49.4005 50.2665H42.4671C41.9887 50.2665 41.6005 49.8774 41.6005 49.3999C41.6005 48.9223 41.9887 48.5333 42.4671 48.5333C42.6326 48.5333 42.7912 48.5809 42.9368 48.6745C43.1735 48.8279 43.4707 48.8548 43.7325 48.7491C43.9942 48.6434 44.1865 48.4163 44.2515 48.1415C44.4345 47.352 45.1252 46.7999 45.9337 46.7999C46.7424 46.7999 47.4331 47.352 47.6159 48.1415C47.6809 48.4163 47.8733 48.6434 48.135 48.7491C48.3967 48.8548 48.6931 48.8279 48.9306 48.6745C49.4948 48.3105 50.267 48.7569 50.267 49.3999C50.2671 49.8774 49.8788 50.2665 49.4005 50.2665Z"/>
</mask>
<path d="M50.2671 46.9593H47.2671V49.073L49.2575 49.7844L50.2671 46.9593ZM48.5338 46.2504L46.2729 48.2223L51.5338 54.2545V46.2504H48.5338ZM42.9126 46.8389L42.3882 49.7927L44.4979 50.1672L45.5366 48.2932L42.9126 46.8389ZM42.9368 48.6745L44.5684 46.157L44.5593 46.1511L42.9368 48.6745ZM44.2515 48.1415L47.171 48.8323L47.1741 48.8186L44.2515 48.1415ZM47.6159 48.1415L44.6932 48.8183L44.6948 48.8253L44.6965 48.8323L47.6159 48.1415ZM48.9306 48.6745L47.3042 46.1537L47.3035 46.1541L48.9306 48.6745ZM50.267 49.3999H47.267V49.4005L50.267 49.3999ZM53.2671 46.9593V9.53326H47.2671V46.9593H53.2671ZM53.2671 9.53326C53.2671 7.4001 51.5386 5.66663 49.4005 5.66663V11.6666C48.2208 11.6666 47.2671 10.7097 47.2671 9.53326H53.2671ZM49.4005 5.66663C47.2623 5.66663 45.5338 7.40011 45.5338 9.53326H51.5338C51.5338 10.7097 50.5801 11.6666 49.4005 11.6666V5.66663ZM45.5338 9.53326V46.2504H51.5338V9.53326H45.5338ZM50.7948 44.2786C49.6064 42.916 47.8603 42.0665 45.9338 42.0665V48.0665C46.0666 48.0665 46.1838 48.1202 46.2729 48.2223L50.7948 44.2786ZM45.9338 42.0665C43.5454 42.0665 41.4079 43.3653 40.2887 45.3846L45.5366 48.2932C45.6115 48.1579 45.7535 48.0665 45.9338 48.0665V42.0665ZM43.437 43.8851C43.115 43.8279 42.7904 43.7999 42.4672 43.7999V49.7999C42.4438 49.7999 42.4173 49.7979 42.3882 49.7927L43.437 43.8851ZM42.4672 43.7999C39.3769 43.7999 36.8672 46.3096 36.8672 49.3999H42.8672C42.8672 49.6233 42.6906 49.7999 42.4672 49.7999V43.7999ZM36.8672 49.3999C36.8672 52.4902 39.3769 54.9999 42.4672 54.9999V48.9999C42.6906 48.9999 42.8672 49.1765 42.8672 49.3999H36.8672ZM42.4672 54.9999H49.4005V48.9999H42.4672V54.9999ZM49.4005 54.9999C52.4908 54.9999 55.0005 52.4902 55.0005 49.3999H49.0005C49.0005 49.1765 49.177 48.9999 49.4005 48.9999V54.9999ZM55.0005 49.3999C55.0005 46.9379 53.4133 44.8979 51.2767 44.1343L49.2575 49.7844C49.1334 49.74 49.0005 49.6051 49.0005 49.3999H55.0005ZM49.4005 47.2665H42.4671V53.2665H49.4005V47.2665ZM42.4671 47.2665C43.6474 47.2665 44.6005 48.2224 44.6005 49.3999H38.6005C38.6005 51.5324 40.33 53.2665 42.4671 53.2665V47.2665ZM44.6005 49.3999C44.6005 50.5774 43.6474 51.5333 42.4671 51.5333V45.5333C40.3301 45.5333 38.6005 47.2673 38.6005 49.3999H44.6005ZM42.4671 51.5333C42.031 51.5333 41.6301 51.4009 41.3144 51.198L44.5593 46.1511C43.9523 45.7608 43.2342 45.5333 42.4671 45.5333V51.5333ZM41.3053 51.1921C42.3736 51.8845 43.7003 51.9976 44.8561 51.5307L42.6088 45.9675C43.2411 45.712 43.9733 45.7713 44.5684 46.157L41.3053 51.1921ZM44.8561 51.5307C46.0356 51.0542 46.8858 50.0376 47.1709 48.8323L41.3321 47.4508C41.4873 46.7949 41.9528 46.2325 42.6088 45.9675L44.8561 51.5307ZM47.1741 48.8186C47.0443 49.3791 46.5313 49.7999 45.9337 49.7999V43.7999C43.719 43.7999 41.8246 45.3248 41.3289 47.4645L47.1741 48.8186ZM45.9337 49.7999C45.3364 49.7999 44.8231 49.3793 44.6932 48.8183L50.5386 47.4648C50.0431 45.3247 48.1483 43.7999 45.9337 43.7999V49.7999ZM44.6965 48.8323C44.9817 50.0376 45.8319 51.0542 47.0113 51.5307L49.2586 45.9675C49.9147 46.2325 50.3801 46.7949 50.5353 47.4508L44.6965 48.8323ZM47.0113 51.5307C48.1694 51.9985 49.4927 51.8825 50.5577 51.1949L47.3035 46.1541C47.8935 45.7733 48.624 45.7111 49.2586 45.9675L47.0113 51.5307ZM50.557 51.1954C49.7663 51.7056 48.8996 51.5856 48.3531 51.2819C47.8263 50.9891 47.267 50.3411 47.267 49.3999H53.267C53.267 47.8157 52.3216 46.623 51.2676 46.0373C50.194 45.4407 48.6592 45.2795 47.3042 46.1537L50.557 51.1954ZM47.267 49.4005C47.2667 48.2224 48.2202 47.2665 49.4005 47.2665V53.2665C51.5374 53.2665 53.2674 51.5324 53.267 49.3993L47.267 49.4005Z" fill="#FAFAFA" mask="url(#path-5-inside-3_1401_32247)"/>
<mask id="path-7-inside-4_1401_32247" fill="white">
<path d="M51.1334 1.73337H44.2C44.2 1.25501 43.8126 0.866734 43.3334 0.866734C43.3334 0.388375 42.946 0.000101563 42.4667 0.000101563H39C38.5207 0.000101563 38.1334 0.388375 38.1334 0.866734V1.73337H36.4V0.866633C36.4 0.388273 36.0126 0 35.5334 0H32.0675C31.5883 0 31.2009 0.388273 31.2009 0.866633V1.73327H13.8666V0.866633C13.8666 0.388273 13.4793 0 13 0H9.53337C9.05409 0 8.66673 0.388273 8.66673 0.866633V1.73327H0.866734C0.387359 1.73337 0 2.12164 0 2.6C0 3.07836 0.387359 3.46663 0.866633 3.46663H9.53327C10.0125 3.46663 10.3999 3.07836 10.3999 2.6V1.73337H12.1333V2.6C12.1333 3.07836 12.5206 3.46663 12.9999 3.46663H32.0674C32.5467 3.46663 32.9341 3.07836 32.9341 2.6V1.73337H34.6665V2.6C34.6665 3.07836 35.0539 3.46663 35.5332 3.46663H39C39.4793 3.46663 39.8666 3.07836 39.8666 2.6V1.73337H40.7333C40.7333 2.21173 41.1206 2.6 41.5999 2.6C41.5999 3.07836 41.9873 3.46663 42.4665 3.46663H50.2665V5.2H2.6C2.12073 5.2 1.73337 5.58827 1.73337 6.06663V46.9595C0.727086 47.3191 0 48.2716 0 49.4C0 50.8335 1.16655 52 2.6 52H9.53337C10.9668 52 12.1334 50.8335 12.1334 49.4C12.1334 47.9665 10.9668 46.8 9.53337 46.8C9.38346 46.8 9.23437 46.813 9.08791 46.839C8.49083 45.7617 7.35109 45.0666 6.06673 45.0666C5.03709 45.0666 4.10546 45.5182 3.46673 46.2505V6.93337H51.1334C51.6126 6.93337 52 6.54509 52 6.06673V2.6C52 2.12164 51.6126 1.73337 51.1334 1.73337ZM3.86537 48.7492C4.12709 48.6435 4.31945 48.4164 4.38455 48.1416C4.56737 47.3521 5.2582 46.8 6.06673 46.8C6.87527 46.8 7.5661 47.3521 7.74891 48.1416C7.81391 48.4164 8.00627 48.6435 8.2681 48.7492C8.52983 48.8549 8.8271 48.828 9.06374 48.6746C9.62965 48.3106 10.4001 48.757 10.4001 49.4C10.4001 49.8775 10.0118 50.2666 9.53347 50.2666H2.6C2.12164 50.2666 1.73337 49.8775 1.73337 49.4C1.73337 48.9225 2.12164 48.5334 2.6 48.5334C2.76555 48.5334 2.92409 48.581 3.06973 48.6746C3.30637 48.828 3.60364 48.8549 3.86537 48.7492Z"/>
</mask>
<path d="M44.2 1.73337H41.2V4.73337H44.2V1.73337ZM43.3334 0.866734H40.3334V3.86673H43.3334V0.866734ZM38.1334 1.73337V4.73337H41.1334V1.73337H38.1334ZM36.4 1.73337H33.4V4.73337H36.4V1.73337ZM31.2009 1.73327V4.73327H34.2009V1.73327H31.2009ZM13.8666 1.73327H10.8666V4.73327H13.8666V1.73327ZM8.66673 1.73327V4.73327H11.6667V1.73327H8.66673ZM0.866734 1.73327V-1.26673L0.866099 -1.26673L0.866734 1.73327ZM10.3999 1.73337V-1.26663H7.3999V1.73337H10.3999ZM12.1333 1.73337H15.1333V-1.26663H12.1333V1.73337ZM32.9341 1.73337V-1.26663H29.9341V1.73337H32.9341ZM34.6665 1.73337H37.6665V-1.26663H34.6665V1.73337ZM39.8666 1.73337V-1.26663H36.8666V1.73337H39.8666ZM40.7333 1.73337H43.7333V-1.26663H40.7333V1.73337ZM41.5999 2.6H44.5999V-0.4H41.5999V2.6ZM50.2665 3.46663H53.2665V0.466633H50.2665V3.46663ZM50.2665 5.2V8.2H53.2665V5.2H50.2665ZM1.73337 46.9595L2.74299 49.7845L4.73337 49.0731V46.9595H1.73337ZM9.08791 46.839L6.464 48.2933L7.50268 50.1673L9.61231 49.7928L9.08791 46.839ZM3.46673 46.2505H0.466734V54.2546L5.72767 48.2224L3.46673 46.2505ZM3.46673 6.93337V3.93337H0.466734V6.93337H3.46673ZM4.38455 48.1416L7.30371 48.8334L7.30549 48.8259L7.30723 48.8184L4.38455 48.1416ZM7.74891 48.1416L4.82624 48.8184L4.82786 48.8254L4.82951 48.8324L7.74891 48.1416ZM8.2681 48.7492L9.39176 45.9676L9.39138 45.9674L8.2681 48.7492ZM9.06374 48.6746L7.44082 46.1515L7.4322 46.1571L9.06374 48.6746ZM3.06973 48.6746L4.70128 46.1571L4.69218 46.1512L3.06973 48.6746ZM51.1334 -1.26663H44.2V4.73337H51.1334V-1.26663ZM47.2 1.73337C47.2 -0.399795 45.4715 -2.13327 43.3334 -2.13327V3.86673C42.1537 3.86673 41.2 2.90981 41.2 1.73337H47.2ZM46.3334 0.866734C46.3334 -1.26641 44.6049 -2.9999 42.4667 -2.9999V3.0001C41.2871 3.0001 40.3334 2.04316 40.3334 0.866734H46.3334ZM42.4667 -2.9999H39V3.0001H42.4667V-2.9999ZM39 -2.9999C36.8618 -2.9999 35.1334 -1.26641 35.1334 0.866734H41.1334C41.1334 2.04316 40.1796 3.0001 39 3.0001V-2.9999ZM35.1334 0.866734V1.73337H41.1334V0.866734H35.1334ZM38.1334 -1.26663H36.4V4.73337H38.1334V-1.26663ZM39.4 1.73337V0.866633H33.4V1.73337H39.4ZM39.4 0.866633C39.4 -1.26651 37.6716 -3 35.5334 -3V3C34.3537 3 33.4 2.04306 33.4 0.866633H39.4ZM35.5334 -3H32.0675V3H35.5334V-3ZM32.0675 -3C29.9294 -3 28.2009 -1.26651 28.2009 0.866633H34.2009C34.2009 2.04306 33.2472 3 32.0675 3V-3ZM28.2009 0.866633V1.73327H34.2009V0.866633H28.2009ZM31.2009 -1.26673H13.8666V4.73327H31.2009V-1.26673ZM16.8666 1.73327V0.866633H10.8666V1.73327H16.8666ZM16.8666 0.866633C16.8666 -1.26652 15.1382 -3 13 -3V3C11.8204 3 10.8666 2.04307 10.8666 0.866633H16.8666ZM13 -3H9.53337V3H13V-3ZM9.53337 -3C7.39518 -3 5.66673 -1.26652 5.66673 0.866633H11.6667C11.6667 2.04307 10.713 3 9.53337 3V-3ZM5.66673 0.866633V1.73327H11.6667V0.866633H5.66673ZM8.66673 -1.26673H0.866734V4.73327H8.66673V-1.26673ZM0.866099 -1.26673C-1.27134 -1.26628 -3 0.466496 -3 2.6H3C3 3.77679 2.04606 4.73302 0.86737 4.73327L0.866099 -1.26673ZM-3 2.6C-3 4.73315 -1.27155 6.46663 0.866633 6.46663V0.466633C2.04627 0.466633 3 1.42357 3 2.6H-3ZM0.866633 6.46663H9.53327V0.466633H0.866633V6.46663ZM9.53327 6.46663C11.6715 6.46663 13.3999 4.73315 13.3999 2.6H7.3999C7.3999 1.42356 8.35363 0.466633 9.53327 0.466633V6.46663ZM13.3999 2.6V1.73337H7.3999V2.6H13.3999ZM10.3999 4.73337H12.1333V-1.26663H10.3999V4.73337ZM9.13327 1.73337V2.6H15.1333V1.73337H9.13327ZM9.13327 2.6C9.13327 4.73315 10.8617 6.46663 12.9999 6.46663V0.466633C14.1795 0.466633 15.1333 1.42357 15.1333 2.6H9.13327ZM12.9999 6.46663H32.0674V0.466633H12.9999V6.46663ZM32.0674 6.46663C34.2056 6.46663 35.9341 4.73315 35.9341 2.6H29.9341C29.9341 1.42357 30.8878 0.466633 32.0674 0.466633V6.46663ZM35.9341 2.6V1.73337H29.9341V2.6H35.9341ZM32.9341 4.73337H34.6665V-1.26663H32.9341V4.73337ZM31.6665 1.73337V2.6H37.6665V1.73337H31.6665ZM31.6665 2.6C31.6665 4.73315 33.395 6.46663 35.5332 6.46663V0.466633C36.7128 0.466633 37.6665 1.42357 37.6665 2.6H31.6665ZM35.5332 6.46663H39V0.466633H35.5332V6.46663ZM39 6.46663C41.1382 6.46663 42.8666 4.73315 42.8666 2.6H36.8666C36.8666 1.42357 37.8204 0.466633 39 0.466633V6.46663ZM42.8666 2.6V1.73337H36.8666V2.6H42.8666ZM39.8666 4.73337H40.7333V-1.26663H39.8666V4.73337ZM37.7333 1.73337C37.7333 3.86651 39.4617 5.6 41.5999 5.6V-0.4C42.7795 -0.4 43.7333 0.556939 43.7333 1.73337H37.7333ZM38.5999 2.6C38.5999 4.73315 40.3283 6.46663 42.4665 6.46663V0.466633C43.6462 0.466633 44.5999 1.42357 44.5999 2.6H38.5999ZM42.4665 6.46663H50.2665V0.466633H42.4665V6.46663ZM47.2665 3.46663V5.2H53.2665V3.46663H47.2665ZM50.2665 2.2H2.6V8.2H50.2665V2.2ZM2.6 2.2C0.461812 2.2 -1.26663 3.93348 -1.26663 6.06663H4.73337C4.73337 7.24307 3.77964 8.2 2.6 8.2V2.2ZM-1.26663 6.06663V46.9595H4.73337V6.06663H-1.26663ZM0.723744 44.1344C-1.41284 44.898 -3 46.938 -3 49.4H3C3 49.6052 2.86702 49.7401 2.74299 49.7845L0.723744 44.1344ZM-3 49.4C-3 52.4903 -0.490308 55 2.6 55V49C2.8234 49 3 49.1766 3 49.4H-3ZM2.6 55H9.53337V49H2.6V55ZM9.53337 55C12.6237 55 15.1334 52.4903 15.1334 49.4H9.13337C9.13337 49.1766 9.30997 49 9.53337 49V55ZM15.1334 49.4C15.1334 46.3097 12.6237 43.8 9.53337 43.8V49.8C9.30997 49.8 9.13337 49.6234 9.13337 49.4H15.1334ZM9.53337 43.8C9.2101 43.8 8.88548 43.828 8.56352 43.8852L9.61231 49.7928C9.58325 49.798 9.55682 49.8 9.53337 49.8V43.8ZM11.7118 45.3847C10.5926 43.3654 8.45517 42.0666 6.06673 42.0666V48.0666C6.24701 48.0666 6.38901 48.158 6.464 48.2933L11.7118 45.3847ZM6.06673 42.0666C4.14025 42.0666 2.3942 42.9161 1.2058 44.2787L5.72767 48.2224C5.81672 48.1203 5.93393 48.0666 6.06673 48.0666V42.0666ZM6.46673 46.2505V6.93337H0.466734V46.2505H6.46673ZM3.46673 9.93337H51.1334V3.93337H3.46673V9.93337ZM51.1334 9.93337C53.2716 9.93337 55 8.19988 55 6.06673H49C49 4.8903 49.9537 3.93337 51.1334 3.93337V9.93337ZM55 6.06673V2.6H49V6.06673H55ZM55 2.6C55 0.466853 53.2716 -1.26663 51.1334 -1.26663V4.73337C49.9537 4.73337 49 3.77643 49 2.6H55ZM4.98902 51.5308C6.16857 51.0543 7.0183 50.0378 7.30371 48.8334L1.4654 47.4499C1.6206 46.7949 2.08561 46.2326 2.74171 45.9676L4.98902 51.5308ZM7.30723 48.8184C7.17731 49.3795 6.66408 49.8 6.06673 49.8V43.8C3.85231 43.8 1.95742 45.3247 1.46188 47.4649L7.30723 48.8184ZM6.06673 49.8C5.46939 49.8 4.95615 49.3795 4.82624 48.8184L10.6716 47.4649C10.176 45.3247 8.28116 43.8 6.06673 43.8V49.8ZM4.82951 48.8324C5.11473 50.0378 5.96508 51.0546 7.14482 51.531L9.39138 45.9674C10.0475 46.2323 10.5131 46.7949 10.6683 47.4509L4.82951 48.8324ZM7.14444 51.5308C8.30024 51.9977 9.62691 51.8846 10.6953 51.1922L7.4322 46.1571C8.02729 45.7714 8.75942 45.7121 9.39176 45.9676L7.14444 51.5308ZM10.6867 51.1978C9.89997 51.7038 9.03537 51.587 8.486 51.2815C7.95684 50.9872 7.4001 50.3383 7.4001 49.4H13.4001C13.4001 46.4498 10.059 44.4675 7.44083 46.1515L10.6867 51.1978ZM7.4001 49.4C7.4001 48.2225 8.35314 47.2666 9.53347 47.2666V53.2666C11.6705 53.2666 13.4001 51.5326 13.4001 49.4H7.4001ZM9.53347 47.2666H2.6V53.2666H9.53347V47.2666ZM2.6 47.2666C3.78033 47.2666 4.73337 48.2225 4.73337 49.4H-1.26663C-1.26663 51.5326 0.462947 53.2666 2.6 53.2666V47.2666ZM4.73337 49.4C4.73337 50.5775 3.78032 51.5334 2.6 51.5334V45.5334C0.462961 45.5334 -1.26663 47.2674 -1.26663 49.4H4.73337ZM2.6 51.5334C2.16394 51.5334 1.76298 51.401 1.44728 51.1981L4.69218 46.1512C4.0852 45.761 3.36715 45.5334 2.6 45.5334V51.5334ZM1.43818 51.1922C2.50656 51.8846 3.83323 51.9977 4.98902 51.5308L2.74171 45.9676C3.37405 45.7121 4.10617 45.7714 4.70127 46.1571L1.43818 51.1922Z" fill="#FAFAFA" mask="url(#path-7-inside-4_1401_32247)"/>
<mask id="path-9-inside-5_1401_32247" fill="white">
<path d="M8.66602 30.3333C8.66602 30.8117 9.05337 31.2 9.53265 31.2H14.7326C15.2119 31.2 15.5993 30.8117 15.5993 30.3333V23.4C15.5993 22.9216 15.2119 22.5333 14.7326 22.5333H9.53265C9.05337 22.5333 8.66602 22.9216 8.66602 23.4V30.3333ZM10.3994 24.2666H13.866V26H10.3994V24.2666ZM10.3994 27.7333H13.866V29.4667H10.3994V27.7333Z"/>
</mask>
<path d="M10.3994 24.2666V21.2666H7.39938V24.2666H10.3994ZM13.866 24.2666H16.866V21.2666H13.866V24.2666ZM13.866 26V29H16.866V26H13.866ZM10.3994 26H7.39938V29H10.3994V26ZM10.3994 27.7333V24.7333H7.39938V27.7333H10.3994ZM13.866 27.7333H16.866V24.7333H13.866V27.7333ZM13.866 29.4667V32.4667H16.866V29.4667H13.866ZM10.3994 29.4667H7.39938V32.4667H10.3994V29.4667ZM5.66602 30.3333C5.66602 32.4665 7.39445 34.2 9.53265 34.2V28.2C10.7123 28.2 11.666 29.1569 11.666 30.3333H5.66602ZM9.53265 34.2H14.7326V28.2H9.53265V34.2ZM14.7326 34.2C16.8708 34.2 18.5993 32.4665 18.5993 30.3333H12.5993C12.5993 29.1569 13.553 28.2 14.7326 28.2V34.2ZM18.5993 30.3333V23.4H12.5993V30.3333H18.5993ZM18.5993 23.4C18.5993 21.2668 16.8708 19.5333 14.7326 19.5333V25.5333C13.553 25.5333 12.5993 24.5764 12.5993 23.4H18.5993ZM14.7326 19.5333H9.53265V25.5333H14.7326V19.5333ZM9.53265 19.5333C7.39446 19.5333 5.66602 21.2668 5.66602 23.4H11.666C11.666 24.5764 10.7123 25.5333 9.53265 25.5333V19.5333ZM5.66602 23.4V30.3333H11.666V23.4H5.66602ZM10.3994 27.2666H13.866V21.2666H10.3994V27.2666ZM10.866 24.2666V26H16.866V24.2666H10.866ZM13.866 23H10.3994V29H13.866V23ZM13.3994 26V24.2666H7.39938V26H13.3994ZM10.3994 30.7333H13.866V24.7333H10.3994V30.7333ZM10.866 27.7333V29.4667H16.866V27.7333H10.866ZM13.866 26.4667H10.3994V32.4667H13.866V26.4667ZM13.3994 29.4667V27.7333H7.39938V29.4667H13.3994Z" fill="#FAFAFA" mask="url(#path-9-inside-5_1401_32247)"/>
<mask id="path-11-inside-6_1401_32247" fill="white">
<path d="M23.3998 19.0667H28.5998C29.0791 19.0667 29.4665 18.6784 29.4665 18.2V11.2667C29.4665 10.7883 29.0791 10.4 28.5998 10.4H23.3998C22.9206 10.4 22.5332 10.7883 22.5332 11.2667V18.2C22.5332 18.6784 22.9206 19.0667 23.3998 19.0667ZM24.2665 12.1334H27.7331V13.8668H24.2665V12.1334ZM24.2665 15.6H27.7331V17.3334H24.2665V15.6Z"/>
</mask>
<path d="M22.5332 18.2H25.5332H22.5332ZM27.7331 12.1334H30.7331V9.13339H27.7331V12.1334ZM27.7331 13.8668V16.8668H30.7331V13.8668H27.7331ZM24.2665 13.8668H21.2665V16.8668H24.2665V13.8668ZM24.2665 12.1334V9.13339H21.2665V12.1334H24.2665ZM27.7331 15.6H30.7331V12.6H27.7331V15.6ZM27.7331 17.3334V20.3334H30.7331V17.3334H27.7331ZM24.2665 17.3334H21.2665V20.3334H24.2665V17.3334ZM24.2665 15.6V12.6H21.2665V15.6H24.2665ZM23.3998 22.0667H28.5998V16.0667H23.3998V22.0667ZM28.5998 22.0667C30.738 22.0667 32.4665 20.3332 32.4665 18.2H26.4665C26.4665 17.0236 27.4202 16.0667 28.5998 16.0667V22.0667ZM32.4665 18.2V11.2667H26.4665V18.2H32.4665ZM32.4665 11.2667C32.4665 9.13351 30.738 7.40002 28.5998 7.40002V13.4C27.4202 13.4 26.4665 12.4431 26.4665 11.2667H32.4665ZM28.5998 7.40002H23.3998V13.4H28.5998V7.40002ZM23.3998 7.40002C21.2616 7.40002 19.5332 9.13351 19.5332 11.2667H25.5332C25.5332 12.4431 24.5795 13.4 23.3998 13.4V7.40002ZM19.5332 11.2667V18.2H25.5332V11.2667H19.5332ZM19.5332 18.2C19.5332 20.3332 21.2616 22.0667 23.3998 22.0667V16.0667C24.5795 16.0667 25.5332 17.0236 25.5332 18.2H19.5332ZM24.2665 15.1334H27.7331V9.13339H24.2665V15.1334ZM24.7331 12.1334V13.8668H30.7331V12.1334H24.7331ZM27.7331 10.8668H24.2665V16.8668H27.7331V10.8668ZM27.2665 13.8668V12.1334H21.2665V13.8668H27.2665ZM24.2665 18.6H27.7331V12.6H24.2665V18.6ZM24.7331 15.6V17.3334H30.7331V15.6H24.7331ZM27.7331 14.3334H24.2665V20.3334H27.7331V14.3334ZM27.2665 17.3334V15.6H21.2665V17.3334H27.2665Z" fill="#FAFAFA" mask="url(#path-11-inside-6_1401_32247)"/>
<mask id="path-13-inside-7_1401_32247" fill="white">
<path d="M37.2665 50.2666H23.3998C22.9206 50.2666 22.5332 50.6549 22.5332 51.1332C22.5332 51.6116 22.9206 51.9999 23.3998 51.9999H37.2665C37.7457 51.9999 38.1331 51.6116 38.1331 51.1332C38.1332 50.6549 37.7457 50.2666 37.2665 50.2666Z"/>
</mask>
<path d="M38.1331 51.1332L35.1331 51.1326V51.1332H38.1331ZM37.2665 47.2666H23.3998V53.2666H37.2665V47.2666ZM23.3998 47.2666C21.2616 47.2666 19.5332 49.0001 19.5332 51.1332H25.5332C25.5332 52.3097 24.5795 53.2666 23.3998 53.2666V47.2666ZM19.5332 51.1332C19.5332 53.2664 21.2616 54.9999 23.3998 54.9999V48.9999C24.5795 48.9999 25.5332 49.9568 25.5332 51.1332H19.5332ZM23.3998 54.9999H37.2665V48.9999H23.3998V54.9999ZM37.2665 54.9999C39.4047 54.9999 41.1331 53.2664 41.1331 51.1332H35.1331C35.1331 49.9568 36.0868 48.9999 37.2665 48.9999V54.9999ZM41.1331 51.1339C41.1336 48.9996 39.4041 47.2666 37.2665 47.2666V53.2666C36.0874 53.2666 35.1329 52.3101 35.1331 51.1326L41.1331 51.1339Z" fill="#FAFAFA" mask="url(#path-13-inside-7_1401_32247)"/>
<mask id="path-15-inside-8_1401_32247" fill="white">
<path d="M36.4004 30.3333C36.4004 30.8117 36.7878 31.2 37.267 31.2H42.467C42.9463 31.2 43.3337 30.8117 43.3337 30.3333V23.4C43.3337 22.9216 42.9463 22.5333 42.467 22.5333H37.267C36.7878 22.5333 36.4004 22.9216 36.4004 23.4V30.3333ZM38.1338 24.2666H41.6004V26H38.1338V24.2666ZM38.1338 27.7333H41.6004V29.4667H38.1338V27.7333Z"/>
</mask>
<path d="M41.6004 24.2666H44.6004V21.2666H41.6004V24.2666ZM41.6004 26V29H44.6004V26H41.6004ZM38.1338 26H35.1338V29H38.1338V26ZM38.1338 24.2666V21.2666H35.1338V24.2666H38.1338ZM41.6004 27.7333H44.6004V24.7333H41.6004V27.7333ZM41.6004 29.4667V32.4667H44.6004V29.4667H41.6004ZM38.1338 29.4667H35.1338V32.4667H38.1338V29.4667ZM38.1338 27.7333V24.7333H35.1338V27.7333H38.1338ZM33.4004 30.3333C33.4004 32.4665 35.1288 34.2 37.267 34.2V28.2C38.4467 28.2 39.4004 29.1569 39.4004 30.3333H33.4004ZM37.267 34.2H42.467V28.2H37.267V34.2ZM42.467 34.2C44.6052 34.2 46.3337 32.4665 46.3337 30.3333H40.3337C40.3337 29.1569 41.2874 28.2 42.467 28.2V34.2ZM46.3337 30.3333V23.4H40.3337V30.3333H46.3337ZM46.3337 23.4C46.3337 21.2668 44.6052 19.5333 42.467 19.5333V25.5333C41.2874 25.5333 40.3337 24.5764 40.3337 23.4H46.3337ZM42.467 19.5333H37.267V25.5333H42.467V19.5333ZM37.267 19.5333C35.1289 19.5333 33.4004 21.2668 33.4004 23.4H39.4004C39.4004 24.5764 38.4467 25.5333 37.267 25.5333V19.5333ZM33.4004 23.4V30.3333H39.4004V23.4H33.4004ZM38.1338 27.2666H41.6004V21.2666H38.1338V27.2666ZM38.6004 24.2666V26H44.6004V24.2666H38.6004ZM41.6004 23H38.1338V29H41.6004V23ZM41.1338 26V24.2666H35.1338V26H41.1338ZM38.1338 30.7333H41.6004V24.7333H38.1338V30.7333ZM38.6004 27.7333V29.4667H44.6004V27.7333H38.6004ZM41.6004 26.4667H38.1338V32.4667H41.6004V26.4667ZM41.1338 29.4667V27.7333H35.1338V29.4667H41.1338Z" fill="#FAFAFA" mask="url(#path-15-inside-8_1401_32247)"/>
<mask id="path-17-inside-9_1401_32247" fill="white">
<path d="M9.53265 19.0667H14.7326C15.2119 19.0667 15.5993 18.6784 15.5993 18.2V11.2667C15.5993 10.7883 15.2119 10.4 14.7326 10.4H9.53265C9.05337 10.4 8.66602 10.7883 8.66602 11.2667V18.2C8.66591 18.6784 9.05337 19.0667 9.53265 19.0667ZM10.3993 12.1334H13.8659V13.8668H10.3993V12.1334ZM10.3993 15.6H13.8659V17.3334H10.3993V15.6Z"/>
</mask>
<path d="M8.66602 18.2L11.666 18.2007V18.2H8.66602ZM10.3993 12.1334V9.13339H7.39928V12.1334H10.3993ZM13.8659 12.1334H16.8659V9.13339H13.8659V12.1334ZM13.8659 13.8668V16.8668H16.8659V13.8668H13.8659ZM10.3993 13.8668H7.39928V16.8668H10.3993V13.8668ZM10.3993 15.6V12.6H7.39928V15.6H10.3993ZM13.8659 15.6H16.8659V12.6H13.8659V15.6ZM13.8659 17.3334V20.3334H16.8659V17.3334H13.8659ZM10.3993 17.3334H7.39928V20.3334H10.3993V17.3334ZM9.53265 22.0667H14.7326V16.0667H9.53265V22.0667ZM14.7326 22.0667C16.8708 22.0667 18.5993 20.3332 18.5993 18.2H12.5993C12.5993 17.0236 13.553 16.0667 14.7326 16.0667V22.0667ZM18.5993 18.2V11.2667H12.5993V18.2H18.5993ZM18.5993 11.2667C18.5993 9.1335 16.8708 7.40002 14.7326 7.40002V13.4C13.553 13.4 12.5993 12.4431 12.5993 11.2667H18.5993ZM14.7326 7.40002H9.53265V13.4H14.7326V7.40002ZM9.53265 7.40002C7.39446 7.40002 5.66602 9.1335 5.66602 11.2667H11.666C11.666 12.4431 10.7123 13.4 9.53265 13.4V7.40002ZM5.66602 11.2667V18.2H11.666V11.2667H5.66602ZM5.66602 18.1994C5.66556 20.3336 7.39504 22.0667 9.53265 22.0667V16.0667C10.7117 16.0667 11.6663 17.0232 11.666 18.2007L5.66602 18.1994ZM10.3993 15.1334H13.8659V9.13339H10.3993V15.1334ZM10.8659 12.1334V13.8668H16.8659V12.1334H10.8659ZM13.8659 10.8668H10.3993V16.8668H13.8659V10.8668ZM13.3993 13.8668V12.1334H7.39928V13.8668H13.3993ZM10.3993 18.6H13.8659V12.6H10.3993V18.6ZM10.8659 15.6V17.3334H16.8659V15.6H10.8659ZM13.8659 14.3334H10.3993V20.3334H13.8659V14.3334ZM13.3993 17.3334V15.6H7.39928V17.3334H13.3993Z" fill="#FAFAFA" mask="url(#path-17-inside-9_1401_32247)"/>
<mask id="path-19-inside-10_1401_32247" fill="white">
<path d="M8.66602 42.4666C8.66602 42.945 9.05337 43.3333 9.53265 43.3333H14.7326C15.2119 43.3333 15.5993 42.945 15.5993 42.4666V35.5333C15.5993 35.0549 15.2119 34.6666 14.7326 34.6666H9.53265C9.05337 34.6666 8.66602 35.0549 8.66602 35.5333V42.4666ZM10.3994 36.4H13.866V38.1334H10.3994V36.4ZM10.3994 39.8666H13.866V41.6H10.3994V39.8666Z"/>
</mask>
<path d="M10.3994 36.4V33.4H7.39938V36.4H10.3994ZM13.866 36.4H16.866V33.4H13.866V36.4ZM13.866 38.1334V41.1334H16.866V38.1334H13.866ZM10.3994 38.1334H7.39938V41.1334H10.3994V38.1334ZM10.3994 39.8666V36.8666H7.39938V39.8666H10.3994ZM13.866 39.8666H16.866V36.8666H13.866V39.8666ZM13.866 41.6V44.6H16.866V41.6H13.866ZM10.3994 41.6H7.39938V44.6H10.3994V41.6ZM5.66602 42.4666C5.66602 44.5998 7.39446 46.3333 9.53265 46.3333V40.3333C10.7123 40.3333 11.666 41.2902 11.666 42.4666H5.66602ZM9.53265 46.3333H14.7326V40.3333H9.53265V46.3333ZM14.7326 46.3333C16.8708 46.3333 18.5993 44.5998 18.5993 42.4666H12.5993C12.5993 41.2902 13.553 40.3333 14.7326 40.3333V46.3333ZM18.5993 42.4666V35.5333H12.5993V42.4666H18.5993ZM18.5993 35.5333C18.5993 33.4001 16.8708 31.6666 14.7326 31.6666V37.6666C13.553 37.6666 12.5993 36.7097 12.5993 35.5333H18.5993ZM14.7326 31.6666H9.53265V37.6666H14.7326V31.6666ZM9.53265 31.6666C7.39446 31.6666 5.66602 33.4001 5.66602 35.5333H11.666C11.666 36.7097 10.7123 37.6666 9.53265 37.6666V31.6666ZM5.66602 35.5333V42.4666H11.666V35.5333H5.66602ZM10.3994 39.4H13.866V33.4H10.3994V39.4ZM10.866 36.4V38.1334H16.866V36.4H10.866ZM13.866 35.1334H10.3994V41.1334H13.866V35.1334ZM13.3994 38.1334V36.4H7.39938V38.1334H13.3994ZM10.3994 42.8666H13.866V36.8666H10.3994V42.8666ZM10.866 39.8666V41.6H16.866V39.8666H10.866ZM13.866 38.6H10.3994V44.6H13.866V38.6ZM13.3994 41.6V39.8666H7.39938V41.6H13.3994Z" fill="#FAFAFA" mask="url(#path-19-inside-10_1401_32247)"/>
<mask id="path-21-inside-11_1401_32247" fill="white">
<path d="M37.267 19.0667H42.467C42.9463 19.0667 43.3337 18.6784 43.3337 18.2V11.2667C43.3337 10.7883 42.9463 10.4 42.467 10.4H37.267C36.7878 10.4 36.4004 10.7883 36.4004 11.2667V18.2C36.4004 18.6784 36.7878 19.0667 37.267 19.0667ZM38.1338 12.1334H41.6004V13.8668H38.1338V12.1334ZM38.1338 15.6H41.6004V17.3334H38.1338V15.6Z"/>
</mask>
<path d="M41.6004 12.1334H44.6004V9.13339H41.6004V12.1334ZM41.6004 13.8668V16.8668H44.6004V13.8668H41.6004ZM38.1338 13.8668H35.1338V16.8668H38.1338V13.8668ZM38.1338 12.1334V9.13339H35.1338V12.1334H38.1338ZM41.6004 15.6H44.6004V12.6H41.6004V15.6ZM41.6004 17.3334V20.3334H44.6004V17.3334H41.6004ZM38.1338 17.3334H35.1338V20.3334H38.1338V17.3334ZM38.1338 15.6V12.6H35.1338V15.6H38.1338ZM37.267 22.0667H42.467V16.0667H37.267V22.0667ZM42.467 22.0667C44.6052 22.0667 46.3337 20.3332 46.3337 18.2H40.3337C40.3337 17.0236 41.2874 16.0667 42.467 16.0667V22.0667ZM46.3337 18.2V11.2667H40.3337V18.2H46.3337ZM46.3337 11.2667C46.3337 9.13351 44.6052 7.40002 42.467 7.40002V13.4C41.2874 13.4 40.3337 12.4431 40.3337 11.2667H46.3337ZM42.467 7.40002H37.267V13.4H42.467V7.40002ZM37.267 7.40002C35.1288 7.40002 33.4004 9.13349 33.4004 11.2667H39.4004C39.4004 12.4431 38.4467 13.4 37.267 13.4V7.40002ZM33.4004 11.2667V18.2H39.4004V11.2667H33.4004ZM33.4004 18.2C33.4004 20.3332 35.1288 22.0667 37.267 22.0667V16.0667C38.4467 16.0667 39.4004 17.0236 39.4004 18.2H33.4004ZM38.1338 15.1334H41.6004V9.13339H38.1338V15.1334ZM38.6004 12.1334V13.8668H44.6004V12.1334H38.6004ZM41.6004 10.8668H38.1338V16.8668H41.6004V10.8668ZM41.1338 13.8668V12.1334H35.1338V13.8668H41.1338ZM38.1338 18.6H41.6004V12.6H38.1338V18.6ZM38.6004 15.6V17.3334H44.6004V15.6H38.6004ZM41.6004 14.3334H38.1338V20.3334H41.6004V14.3334ZM41.1338 17.3334V15.6H35.1338V17.3334H41.1338Z" fill="#FAFAFA" mask="url(#path-21-inside-11_1401_32247)"/>
<mask id="path-23-inside-12_1401_32247" fill="white">
<path d="M22.5332 30.3333C22.5332 30.8117 22.9206 31.2 23.3998 31.2H28.5998C29.0791 31.2 29.4665 30.8117 29.4665 30.3333V23.4C29.4665 22.9216 29.0791 22.5333 28.5998 22.5333H23.3998C22.9206 22.5333 22.5332 22.9216 22.5332 23.4V30.3333ZM24.2665 24.2666H27.7331V26H24.2665V24.2666ZM24.2665 27.7333H27.7331V29.4667H24.2665V27.7333Z"/>
</mask>
<path d="M27.7331 24.2666H30.7331V21.2666H27.7331V24.2666ZM27.7331 26V29H30.7331V26H27.7331ZM24.2665 26H21.2665V29H24.2665V26ZM24.2665 24.2666V21.2666H21.2665V24.2666H24.2665ZM27.7331 27.7333H30.7331V24.7333H27.7331V27.7333ZM27.7331 29.4667V32.4667H30.7331V29.4667H27.7331ZM24.2665 29.4667H21.2665V32.4667H24.2665V29.4667ZM24.2665 27.7333V24.7333H21.2665V27.7333H24.2665ZM19.5332 30.3333C19.5332 32.4665 21.2616 34.2 23.3998 34.2V28.2C24.5795 28.2 25.5332 29.1569 25.5332 30.3333H19.5332ZM23.3998 34.2H28.5998V28.2H23.3998V34.2ZM28.5998 34.2C30.738 34.2 32.4665 32.4665 32.4665 30.3333H26.4665C26.4665 29.1569 27.4202 28.2 28.5998 28.2V34.2ZM32.4665 30.3333V23.4H26.4665V30.3333H32.4665ZM32.4665 23.4C32.4665 21.2668 30.738 19.5333 28.5998 19.5333V25.5333C27.4202 25.5333 26.4665 24.5764 26.4665 23.4H32.4665ZM28.5998 19.5333H23.3998V25.5333H28.5998V19.5333ZM23.3998 19.5333C21.2616 19.5333 19.5332 21.2668 19.5332 23.4H25.5332C25.5332 24.5764 24.5795 25.5333 23.3998 25.5333V19.5333ZM19.5332 23.4V30.3333H25.5332V23.4H19.5332ZM24.2665 27.2666H27.7331V21.2666H24.2665V27.2666ZM24.7331 24.2666V26H30.7331V24.2666H24.7331ZM27.7331 23H24.2665V29H27.7331V23ZM27.2665 26V24.2666H21.2665V26H27.2665ZM24.2665 30.7333H27.7331V24.7333H24.2665V30.7333ZM24.7331 27.7333V29.4667H30.7331V27.7333H24.7331ZM27.7331 26.4667H24.2665V32.4667H27.7331V26.4667ZM27.2665 29.4667V27.7333H21.2665V29.4667H27.2665Z" fill="#FAFAFA" mask="url(#path-23-inside-12_1401_32247)"/>
</svg>
